<svg width="63" height="16" viewBox="0 0 63 16" fill="none" xmlns="http://www.w3.org/2000/svg">
<g clip-path="url(#clip0_59_557)">
<path d="M15.8342 3.6236C16.5575 3.62363 17.2167 3.79869 17.8116 4.14877C18.4183 4.49885 18.9022 5.00663 19.2639 5.67178C19.6372 6.32529 19.8242 7.11885 19.8242 8.05241V8.31498C19.8242 9.24863 19.6434 10.0482 19.2817 10.7134C18.92 11.3669 18.4356 11.8685 17.829 12.2186C17.2224 12.5687 16.5575 12.7438 15.8342 12.7438C15.2743 12.7438 14.8016 12.6738 14.4167 12.5337C14.0317 12.3937 13.7225 12.2186 13.4892 12.0086C13.2558 11.7868 13.0688 11.5592 12.9288 11.3259H12.6489V15.9999H10.8464V3.86882H12.6141V5.11143H12.8941C13.1158 4.72641 13.4483 4.38226 13.8915 4.07889C14.3465 3.77548 14.9942 3.6236 15.8342 3.6236ZM15.309 5.21649C14.539 5.21649 13.8975 5.46774 13.3841 5.96952C12.8825 6.47134 12.6315 7.18303 12.6315 8.10494V8.26249C12.6315 9.19609 12.8824 9.91387 13.3841 10.4157C13.8975 10.9175 14.539 11.1687 15.309 11.1687C16.1024 11.1687 16.7501 10.9175 17.2517 10.4157C17.7533 9.91387 18.0039 9.196 18.0039 8.26249V8.10494C18.0039 7.18303 17.7472 6.47134 17.234 5.96952C16.7323 5.46769 16.0907 5.21649 15.309 5.21649Z" fill="#F5F5F5"/>
<path d="M25.4709 4.19748L25.6236 7.54515L27.3958 4.74351L25.8602 7.68053L28.7964 6.14324L25.9978 7.91666L29.0295 8.03906C29.0295 8.03804 29.0295 8.03702 29.0295 8.03604H30.2782C30.2781 8.98675 29.996 9.91608 29.4678 10.7066C28.9396 11.4971 28.189 12.1132 27.3107 12.477C26.4323 12.8408 25.4654 12.9364 24.5329 12.7509C23.6005 12.5654 22.7438 12.1072 22.0716 11.4349C21.3994 10.7627 20.9415 9.90631 20.756 8.97395C20.5705 8.04146 20.6656 7.07457 21.0295 6.19617C21.3933 5.31782 22.0098 4.56728 22.8003 4.03906C23.5908 3.51086 24.5201 3.22874 25.4709 3.22873V4.19748ZM23.7239 11.1359C24.0502 11.3197 24.4056 11.4522 24.7768 11.526C25.0084 11.5721 25.2427 11.5946 25.4765 11.5942L25.352 8.56293L23.7239 11.1359ZM25.4995 11.5942C25.9549 11.5905 26.408 11.4998 26.8328 11.3238C26.976 11.2645 27.1145 11.1957 27.2478 11.1189L25.6245 8.56164L25.4995 11.5942ZM22.4062 9.84462C22.5577 10.1012 22.7419 10.3391 22.9548 10.5521C23.1795 10.7768 23.4319 10.969 23.7048 11.125L25.1158 8.42577L22.4062 9.84462ZM27.2677 11.1072C27.731 10.8361 28.1291 10.4628 28.4296 10.013C28.4695 9.95337 28.5073 9.8924 28.5433 9.83071L25.8615 8.42622L27.2677 11.1072ZM21.9127 8.06595C21.9146 8.28795 21.9372 8.51026 21.9808 8.73004C22.058 9.118 22.1989 9.48817 22.3958 9.8264L24.9783 8.19008L21.9127 8.06595ZM25.9969 8.18924L28.5551 9.81031C28.8606 9.27924 29.0245 8.67711 29.029 8.06204L25.9969 8.18924ZM22.381 6.27084C22.307 6.40048 22.2407 6.53506 22.1831 6.67404C22.0022 7.11088 21.911 7.57724 21.9123 8.04555L24.9796 7.91711L22.381 6.27084ZM23.6866 4.95746C23.6213 4.99528 23.5569 5.03515 23.4939 5.07724C23.0393 5.38102 22.6623 5.78386 22.3906 6.25346L25.1145 7.68013L23.6866 4.95746ZM25.4609 4.47742C24.8429 4.4792 24.2375 4.64191 23.7035 4.94746L25.3502 7.54297L25.4609 4.47742Z" fill="#3FE0F5"/>
<path d="M4.51516 0C5.3668 2.1252e-06 6.12516 0.14589 6.79013 0.43764C7.46684 0.729396 7.99769 1.1612 8.38271 1.73304C8.76773 2.30489 8.96022 3.02261 8.96022 3.88621V4.5164H7.08764V3.88621C7.08764 3.36105 6.97684 2.93509 6.7552 2.60832C6.5452 2.28156 6.24764 2.04234 5.86267 1.89063C5.47764 1.73891 5.02849 1.66305 4.51516 1.66304C3.76845 1.66304 3.18508 1.82056 2.76507 2.13565C2.35673 2.43907 2.15254 2.86504 2.15254 3.41354C2.15254 3.78699 2.24008 4.09629 2.41508 4.34137C2.60175 4.57476 2.87008 4.76738 3.22008 4.91907C3.57009 5.0708 4.00764 5.20498 4.53267 5.32169L5.18013 5.4792C5.97351 5.65427 6.67351 5.88182 7.28018 6.16191C7.88689 6.43036 8.36524 6.79796 8.71524 7.2648C9.06524 7.7316 9.52724 8.33262 9.52724 9.06782C9.52724 9.80307 9.05356 10.4449 8.68022 10.9934C8.31853 11.5419 7.79938 11.9737 7.12267 12.2888C6.446 12.5923 5.6468 12.744 4.72511 12.744C3.80345 12.744 2.98676 12.5806 2.27508 12.2539C1.5634 11.9271 1.00336 11.4486 0.595013 10.8184C0.198334 10.1765 0 9.4004 0 8.49013V8.05253H1.87255V8.49013C1.87255 9.35373 2.12924 10.0015 2.64259 10.4333C3.1676 10.8651 3.86179 11.081 4.72511 11.081C5.60013 11.081 6.25938 10.9001 6.70271 10.5383C7.14604 10.1649 7.36769 9.68636 7.36773 9.10284C7.36773 8.71773 7.26267 8.40267 7.05271 8.1576C6.84267 7.91249 6.54516 7.71991 6.16018 7.57987C5.77516 7.42818 5.31427 7.28813 4.7776 7.15973L4.13012 7.00218C3.34843 6.81547 2.66589 6.58791 2.08254 6.31951C1.51086 6.03942 1.06753 5.67178 0.752524 5.21667C0.437515 4.76151 0.279989 4.17797 0.279989 3.46609C0.279989 2.74253 0.454996 2.12399 0.805004 1.6105C1.16668 1.09701 1.66252 0.700209 2.29253 0.420123C2.92255 0.140036 3.66344 0 4.51516 0Z" fill="#F5F5F5"/>
<path d="M47.6724 3.6236C48.5004 3.6236 49.224 3.81048 49.8427 4.18393C50.4724 4.54569 50.9627 5.05343 51.3124 5.70694C51.6622 6.36041 51.8373 7.12476 51.8373 7.99992V8.68263H45.2049C45.228 9.44116 45.4791 10.0482 45.9573 10.5034C46.4476 10.9468 47.0542 11.1683 47.7773 11.1683C48.4538 11.1683 48.9618 11.0168 49.3 10.7134C49.6498 10.41 49.9182 10.0599 50.1049 9.66307L51.5924 10.4335C51.4293 10.7602 51.1898 11.1044 50.8751 11.466C50.5716 11.8278 50.1689 12.1312 49.6676 12.3762C49.1658 12.6212 48.524 12.7438 47.7422 12.7438C46.8671 12.7438 46.1031 12.563 45.4498 12.2013C44.7964 11.8279 44.283 11.3087 43.9097 10.6436C43.548 9.96672 43.3672 9.18454 43.3672 8.29765V8.08756C43.3672 7.18898 43.548 6.40685 43.9097 5.74165C44.2714 5.06485 44.7733 4.54569 45.4151 4.18393C46.0684 3.81051 46.8204 3.6236 47.6724 3.6236ZM47.6551 5.21649C46.9782 5.21649 46.424 5.40334 45.992 5.77681C45.5724 6.13858 45.3156 6.64636 45.2222 7.29983H50C49.9533 6.64632 49.72 6.13858 49.3 5.77681C48.88 5.40338 48.3316 5.21649 47.6551 5.21649Z" fill="#F5F5F5"/>
<path d="M62.1347 12.499H60.3671V11.2733H60.0867C59.8653 11.6468 59.5271 11.9856 59.072 12.2889C58.6289 12.5924 57.9871 12.7438 57.1471 12.7438C56.4356 12.7438 55.776 12.5688 55.1693 12.2186C54.5627 11.8685 54.0724 11.3669 53.6991 10.7134C53.3373 10.0482 53.1569 9.24862 53.1569 8.31498V8.0524C53.1569 7.13053 53.3378 6.33693 53.6991 5.67178C54.0609 5.00658 54.5453 4.49889 55.152 4.14876C55.7587 3.79868 56.424 3.62359 57.1471 3.62359C57.7071 3.62361 58.1738 3.69366 58.5467 3.83366C58.9316 3.97366 59.2467 4.15455 59.4916 4.3762C59.7369 4.58627 59.9236 4.80818 60.052 5.04156H60.332V0.245117H62.1347V12.499ZM57.6547 5.21649C56.8845 5.21649 56.2431 5.46773 55.7298 5.96951C55.228 6.47133 54.9769 7.18302 54.9769 8.10493V8.26249C54.9769 9.19609 55.228 9.91387 55.7298 10.4157C56.2431 10.9175 56.8845 11.1687 57.6547 11.1687C58.436 11.1687 59.0778 10.9175 59.5796 10.4157C60.0929 9.91387 60.3493 9.19609 60.3493 8.26249V8.10493C60.3493 7.18302 60.0982 6.47133 59.5969 5.96951C59.0951 5.46773 58.448 5.21649 57.6547 5.21649Z" fill="#F5F5F5"/>
<path d="M34.0689 3.86866H37.919V1.0153H39.7215V3.86866H42.3116V5.39165H39.7215V10.4507C39.7215 10.8008 39.8907 10.9759 40.2291 10.9759H42.0141V12.4989H39.6516C39.1266 12.4989 38.7065 12.3413 38.3915 12.0262C38.0765 11.7111 37.919 11.2909 37.919 10.7658V5.39165H34.0689V10.4507C34.0689 10.8008 34.2323 10.9759 34.5589 10.9759H36.3615V12.4989H33.9814C33.4563 12.4989 33.0363 12.3413 32.7213 12.0262C32.418 11.7111 32.2663 11.2909 32.2663 10.7658V5.39165H29.8863V3.86866H32.2663V1.0153H34.0689V3.86866Z" fill="#F5F5F5"/>
</g>
<defs>
<clipPath id="clip0_59_557">
<rect width="62.2222" height="16" fill="white"/>
</clipPath>
</defs>
</svg>
