<svg width="140" height="36" viewBox="0 0 140 36" fill="none" xmlns="http://www.w3.org/2000/svg">
<path d="M35.627 8.15308C37.2543 8.15315 38.7375 8.54705 40.0762 9.33472C41.4411 10.1224 42.53 11.2649 43.3438 12.7615C44.1837 14.2319 44.6045 16.0174 44.6045 18.1179V18.7087C44.6045 20.8094 44.1976 22.6085 43.3838 24.1052C42.57 25.5756 41.4802 26.7042 40.1152 27.4919C38.7503 28.2796 37.2543 28.6735 35.627 28.6736C34.3671 28.6736 33.3037 28.516 32.4375 28.2009C31.5713 27.8858 30.8756 27.4919 30.3506 27.0193C29.8256 26.5204 29.4049 26.0083 29.0898 25.4832H28.46V35.9998H24.4043V8.70483H28.3818V11.5007H29.0117C29.5105 10.6344 30.2586 9.86007 31.2559 9.17749C32.2796 8.49481 33.7369 8.15308 35.627 8.15308ZM34.4453 11.7371C32.7128 11.7371 31.2693 12.3024 30.1143 13.4314C28.9856 14.5605 28.4209 16.1618 28.4209 18.2361V18.5906C28.4209 20.6912 28.9855 22.3062 30.1143 23.4353C31.2693 24.5643 32.7128 25.1296 34.4453 25.1296C36.2303 25.1296 37.6877 24.5644 38.8164 23.4353C39.945 22.3062 40.5088 20.691 40.5088 18.5906V18.2361C40.5087 16.1618 39.9313 14.5605 38.7764 13.4314C37.6476 12.3023 36.2041 11.7371 34.4453 11.7371Z" fill="#F5F5F5"/>
<path d="M57.3095 9.44434L57.6532 16.9766L61.6405 10.6729L58.1854 17.2812L64.7919 13.8223L58.495 17.8125L65.3163 18.0879C65.3163 18.0856 65.3163 18.0833 65.3163 18.0811H68.1259C68.1258 20.2202 67.4911 22.3112 66.3026 24.0898C65.1142 25.8684 63.4252 27.2546 61.4491 28.0732C59.4727 28.8919 57.2972 29.1068 55.1991 28.6895C53.1011 28.2721 51.1736 27.2411 49.661 25.7285C48.1487 24.216 47.1184 22.2892 46.7011 20.1914C46.2837 18.0933 46.4977 15.9178 47.3163 13.9414C48.1349 11.9651 49.522 10.2764 51.3007 9.08789C53.0793 7.89944 55.1703 7.26467 57.3095 7.26465V9.44434ZM53.3788 25.0557C54.113 25.4694 54.9125 25.7674 55.7479 25.9336C56.2689 26.0372 56.7961 26.0878 57.3222 26.0869L57.0419 19.2666L53.3788 25.0557ZM57.3739 26.0869C58.3986 26.0786 59.4179 25.8745 60.3739 25.4785C60.696 25.3451 61.0077 25.1903 61.3075 25.0176L57.6552 19.2637L57.3739 26.0869ZM50.414 22.1504C50.7548 22.7278 51.1692 23.263 51.6483 23.7422C52.1538 24.2477 52.7218 24.6802 53.3358 25.0312L56.5106 18.958L50.414 22.1504ZM61.3524 24.9912C62.3948 24.3813 63.2905 23.5412 63.9667 22.5293C64.0564 22.3951 64.1415 22.2579 64.2225 22.1191L58.1884 18.959L61.3524 24.9912ZM49.3036 18.1484C49.3078 18.6479 49.3586 19.1481 49.4569 19.6426C49.6305 20.5155 49.9475 21.3484 50.3905 22.1094L56.2011 18.4277L49.3036 18.1484ZM58.4931 18.4258L64.2489 22.0732C64.9364 20.8783 65.3051 19.5235 65.3153 18.1396L58.4931 18.4258ZM50.3573 14.1094C50.1907 14.4011 50.0415 14.7039 49.912 15.0166C49.5049 15.9995 49.2998 17.0488 49.3026 18.1025L56.204 17.8135L50.3573 14.1094ZM53.2948 11.1543C53.1479 11.2394 53.003 11.3291 52.8612 11.4238C51.8385 12.1073 50.9902 13.0137 50.3788 14.0703L56.5077 17.2803L53.2948 11.1543ZM57.287 10.0742C55.8966 10.0782 54.5344 10.4443 53.3329 11.1318L57.038 16.9717L57.287 10.0742Z" fill="#3FE0F5"/>
<path d="M10.1591 0C12.0753 4.78169e-06 13.7816 0.328253 15.2778 0.98469C16.8004 1.64114 17.9948 2.6127 18.8611 3.89935C19.7274 5.186 20.1605 6.80087 20.1605 8.74397V10.1619H15.9472V8.74397C15.9472 7.56237 15.6979 6.60395 15.1992 5.86873C14.7267 5.13351 14.0572 4.59526 13.191 4.25391C12.3247 3.91255 11.3141 3.74186 10.1591 3.74185C8.47902 3.74185 7.16642 4.09625 6.2214 4.80521C5.30264 5.48791 4.84322 6.44635 4.84321 7.68046C4.84321 8.52072 5.04017 9.21666 5.43393 9.76808C5.85394 10.2932 6.45768 10.7266 7.24518 11.0679C8.0327 11.4093 9.0172 11.7112 10.1985 11.9738L11.6553 12.3282C13.4404 12.7221 15.0154 13.2341 16.3804 13.8643C17.7455 14.4683 18.8218 15.2954 19.6093 16.3458C20.3968 17.3961 21.4363 18.7484 21.4363 20.4026C21.4363 22.0569 20.3705 23.5011 19.5305 24.7352C18.7167 25.9693 17.5486 26.9409 16.026 27.6498C14.5035 28.3326 12.7053 28.6739 10.6315 28.6739C8.55776 28.6739 6.72021 28.3064 5.11894 27.5712C3.51765 26.8359 2.25755 25.7593 1.33878 24.3414C0.446252 22.8972 0 21.1509 0 19.1028V18.1182H4.21323V19.1028C4.21323 21.0459 4.79079 22.5034 5.94582 23.4749C7.12709 24.4464 8.68902 24.9322 10.6315 24.9322C12.6003 24.9322 14.0836 24.5252 15.0811 23.7112C16.0786 22.871 16.5773 21.7943 16.5774 20.4814C16.5774 19.6149 16.341 18.906 15.8686 18.3546C15.396 17.8031 14.7266 17.3698 13.8604 17.0547C12.9941 16.7134 11.9571 16.3983 10.7496 16.1094L9.29276 15.7549C7.53396 15.3348 5.99825 14.8228 4.68571 14.2189C3.39944 13.5887 2.40194 12.7615 1.69318 11.7375C0.984409 10.7134 0.629976 9.40044 0.629975 7.7987C0.629975 6.17069 1.02374 4.77898 1.81126 3.62362C2.62502 2.46827 3.74068 1.57547 5.15819 0.945277C6.57573 0.315081 8.24275 0 10.1591 0Z" fill="#F5F5F5"/>
<path d="M107.263 8.15308C109.126 8.15308 110.754 8.57356 112.146 9.41382C113.563 10.2278 114.666 11.3702 115.453 12.8406C116.24 14.3109 116.634 16.0307 116.634 17.9998V19.5359H101.711C101.763 21.2426 102.328 22.6085 103.404 23.6326C104.507 24.6302 105.872 25.1287 107.499 25.1287C109.021 25.1286 110.164 24.7879 110.925 24.1052C111.712 23.4225 112.316 22.6347 112.736 21.7419L116.083 23.4753C115.716 24.2104 115.177 24.9848 114.469 25.7986C113.786 26.6125 112.88 27.2951 111.752 27.8464C110.623 28.3978 109.179 28.6736 107.42 28.6736C105.451 28.6735 103.732 28.2668 102.262 27.4529C100.792 26.6127 99.6368 25.4445 98.7969 23.948C97.9831 22.4251 97.5762 20.6652 97.5762 18.6697V18.197C97.5762 16.1752 97.9831 14.4154 98.7969 12.9187C99.6106 11.3959 100.74 10.2278 102.184 9.41382C103.654 8.57363 105.346 8.15308 107.263 8.15308ZM107.224 11.7371C105.701 11.7371 104.454 12.1575 103.482 12.9978C102.538 13.8118 101.96 14.9543 101.75 16.4246H112.5C112.395 14.9542 111.87 13.8118 110.925 12.9978C109.98 12.1576 108.746 11.7371 107.224 11.7371Z" fill="#F5F5F5"/>
<path d="M139.803 28.1228H135.826V25.365H135.195C134.697 26.2052 133.936 26.9675 132.912 27.6501C131.915 28.3328 130.471 28.6735 128.581 28.6736C126.98 28.6736 125.496 28.2797 124.131 27.4919C122.766 26.7042 121.663 25.5755 120.823 24.1052C120.009 22.6085 119.603 20.8094 119.603 18.7087V18.1179C119.603 16.0437 120.01 14.2581 120.823 12.7615C121.637 11.2648 122.727 10.1225 124.092 9.33472C125.457 8.54704 126.954 8.15308 128.581 8.15308C129.841 8.15312 130.891 8.31073 131.73 8.62573C132.596 8.94074 133.305 9.34773 133.856 9.84644C134.408 10.3191 134.828 10.8184 135.117 11.3435H135.747V0.551514H139.803V28.1228ZM129.723 11.7371C127.99 11.7371 126.547 12.3024 125.392 13.4314C124.263 14.5605 123.698 16.1618 123.698 18.2361V18.5906C123.698 20.6912 124.263 22.3062 125.392 23.4353C126.547 24.5643 127.99 25.1296 129.723 25.1296C131.481 25.1296 132.925 24.5643 134.054 23.4353C135.209 22.3062 135.786 20.6912 135.786 18.5906V18.2361C135.786 16.1618 135.221 14.5605 134.093 13.4314C132.964 12.3024 131.508 11.7371 129.723 11.7371Z" fill="#F5F5F5"/>
<path d="M76.655 8.70446H85.3178V2.28442H89.3735V8.70446H95.2011V12.1312H89.3735V23.5141C89.3735 24.3018 89.7541 24.6957 90.5154 24.6957H94.5317V28.1224H89.216C88.0348 28.1224 87.0897 27.768 86.381 27.059C85.6722 26.35 85.3178 25.4046 85.3178 24.223V12.1312H76.655V23.5141C76.655 24.3018 77.0226 24.6957 77.7576 24.6957H81.8133V28.1224H76.4581C75.2768 28.1224 74.3318 27.768 73.623 27.059C72.9405 26.35 72.5992 25.4046 72.5992 24.223V12.1312H67.2441V8.70446H72.5992V2.28442H76.655V8.70446Z" fill="#F5F5F5"/>
</svg>
